{"extensionsUsed" : ["KHR_materials_unlit"], "accessors" : [{"bufferView" : 0, "byteOffset" : 0, "componentType" : 5123, "count" : 6228, "type" : "SCALAR", "max" : [5213], "min" : [0]}, {"bufferView" : 1, "byteOffset" : 0, "componentType" : 5126, "count" : 5214, "type" : "VEC3", "max" : [2.0775561332702637, 9.634852409362793, 3.452158212661743], "min" : [-1.7739744186401367, 0.46376681327819824, -2.8333215713500977], "name" : "POSITION"}, {"bufferView" : 1, "byteOffset" : 12, "componentType" : 5126, "count" : 5214, "type" : "VEC3", "max" : [0.9997995495796204, 0.9995746612548828, 0.9999465942382812], "min" : [-0.9994634985923767, -0.9954338073730469, -0.9999620318412781], "name" : "NORMAL"}, {"bufferView" : 1, "byteOffset" : 24, "componentType" : 5126, "count" : 5214, "type" : "VEC2", "max" : [0.9906010031700134, 0.9961280226707458], "min" : [0.00469100009649992, 0.0020520000252872705], "name" : "TEXCOORD_0"}, {"bufferView" : 1, "byteOffset" : 32, "componentType" : 5126, "count" : 5214, "type" : "VEC2", "max" : [0, 0], "min" : [0, 0], "name" : "TEXCOORD_1"}, {"bufferView" : 0, "byteOffset" : 12456, "componentType" : 5123, "count" : 132, "type" : "SCALAR", "max" : [108], "min" : [0]}, {"bufferView" : 2, "byteOffset" : 0, "componentType" : 5126, "count" : 109, "type" : "VEC3", "max" : [4.004403591156006, 0.480855792760849, 4.004403591156006], "min" : [-4.004403591156006, 0, -4.004403591156006], "name" : "POSITION"}, {"bufferView" : 2, "byteOffset" : 12, "componentType" : 5126, "count" : 109, "type" : "VEC3", "max" : [0.6088451743125916, 1.0000044107437134, 0.608845055103302], "min" : [-0.6088448166847229, -1.0000044107437134, -0.6088446974754333], "name" : "NORMAL"}, {"bufferView" : 2, "byteOffset" : 24, "componentType" : 5126, "count" : 109, "type" : "VEC2", "max" : [0, 0], "min" : [0, 0], "name" : "TEXCOORD_0"}, {"bufferView" : 2, "byteOffset" : 32, "componentType" : 5126, "count" : 109, "type" : "VEC2", "max" : [0.875, 1], "min" : [0.125, 0], "name" : "TEXCOORD_1"}], "asset" : {"generator" : "Aspose.3D 22.7", "version" : "2.0"}, "buffers" : [{"uri" : "data:application/octet-stream;base64,", "byteLength" : 267132}], "bufferViews" : [{"buffer" : 0, "byteOffset" : 0, "byteLength" : 12720, "target" : 34963}, {"buffer" : 0, "byteOffset" : 12724, "byteLength" : 249120, "byteStride" : 40, "target" : 34962}, {"buffer" : 0, "byteOffset" : 261848, "byteLength" : 5280, "byteStride" : 40, "target" : 34962}], "images" : [{"uri" : "data:image/jpeg;base64,"}], "materials" : [{"name" : "lambert2", "extensions" : {"KHR_materials_unlit" : {}}, "pbrMetallicRoughness" : {"baseColorFactor" : [1, 1, 1, 1], "baseColorTexture" : {"index" : 0, "texCoord" : 0}, "metallicFactor" : 0, "roughnessFactor" : 1}, "emissiveFactor" : [0, 0, 0], "alphaMode" : "OPAQUE", "doubleSided" : true}, {"name" : "blinn1", "extensions" : {"KHR_materials_unlit" : {}}, "pbrMetallicRoughness" : {"baseColorFactor" : [0.004895999999999999, 0.0040290000000000005, 0.0040290000000000005, 1], "metallicFactor" : 0, "roughnessFactor" : 1}, "emissiveFactor" : [0, 0, 0], "alphaMode" : "OPAQUE", "doubleSided" : true}], "meshes" : [{"primitives" : [{"attributes" : {"POSITION" : 1, "NORMAL" : 2, "TEXCOORD_0" : 3, "TEXCOORD_1" : 4}, "indices" : 0, "material" : 0, "mode" : 4}]}, {"primitives" : [{"attributes" : {"POSITION" : 6, "NORMAL" : 7, "TEXCOORD_0" : 8, "TEXCOORD_1" : 9}, "indices" : 5, "material" : 1, "mode" : 4}]}], "nodes" : [{"mesh" : 0, "name" : "polySurface37_lambert2_0"}, {"mesh" : 1, "name" : "polySurface37_blinn1_0"}, {"children" : [0, 1], "name" : "polySurface37"}, {"children" : [2], "name" : "RootNode"}, {"children" : [3], "matrix" : [1, 0, 0, 0, 0, 0, 1, 0, 0, -1, 0, 0, 0, 0, 0, 1], "name" : "90sDadPose.fbx"}, {"children" : [4], "matrix" : [1, 0, 0, 0, 0, 2.220446049250313E-16, -1, 0, 0, 1, 2.220446049250313E-16, 0, 0, 0, 0, 1], "name" : "Sketchfab_model"}], "samplers" : [{"magFilter" : 9729, "minFilter" : 9987, "wrapS" : 10497, "wrapT" : 10497}], "scene" : 0, "scenes" : [{"nodes" : [5]}], "textures" : [{"sampler" : 0, "source" : 0, "name" : ""}]}