{"accessors" : [{"bufferView" : 0, "byteOffset" : 0, "componentType" : 5123, "count" : 8568, "type" : "SCALAR", "max" : [6979], "min" : [0]}, {"bufferView" : 1, "byteOffset" : 0, "componentType" : 5126, "count" : 6980, "type" : "VEC3", "max" : [33.13528060913086, 6.135000228881836, 81.73748016357422], "min" : [-33.13528060913086, -9.46403980255127, -0.11415000259876251], "name" : "POSITION"}, {"bufferView" : 1, "byteOffset" : 12, "componentType" : 5126, "count" : 6980, "type" : "VEC3", "max" : [1.0000044107437134, 0.9994732737541199, 0.9914552569389343], "min" : [-1.0000044107437134, -0.9998124241828918, -0.999656081199646], "name" : "NORMAL"}, {"bufferView" : 1, "byteOffset" : 24, "componentType" : 5126, "count" : 6980, "type" : "VEC2", "max" : [0, 0], "min" : [0, 0], "name" : "TEXCOORD_0"}, {"bufferView" : 1, "byteOffset" : 32, "componentType" : 5126, "count" : 6980, "type" : "VEC2", "max" : [0.875, 0.75], "min" : [0, 0], "name" : "TEXCOORD_1"}, {"bufferView" : 1, "byteOffset" : 40, "componentType" : 5126, "count" : 6980, "type" : "VEC2", "max" : [0, 0], "min" : [0, 0], "name" : "TEXCOORD_2"}, {"bufferView" : 1, "byteOffset" : 48, "componentType" : 5126, "count" : 6980, "type" : "VEC2", "max" : [0.875, 0.75], "min" : [0, 0], "name" : "TEXCOORD_3"}, {"bufferView" : 1, "byteOffset" : 56, "componentType" : 5126, "count" : 6980, "type" : "VEC2", "max" : [0, 0], "min" : [0, 0], "name" : "TEXCOORD_4"}, {"bufferView" : 1, "byteOffset" : 64, "componentType" : 5126, "count" : 6980, "type" : "VEC2", "max" : [0.7343800067901611, 0.23296000063419342], "min" : [0, 0], "name" : "TEXCOORD_5"}, {"bufferView" : 1, "byteOffset" : 72, "componentType" : 5126, "count" : 6980, "type" : "VEC2", "max" : [0.197270005941391, 0.09092000126838684], "min" : [0, 0], "name" : "TEXCOORD_6"}, {"bufferView" : 1, "byteOffset" : 80, "componentType" : 5126, "count" : 6980, "type" : "VEC2", "max" : [0.197270005941391, 0.09092000126838684], "min" : [0, 0], "name" : "TEXCOORD_7"}], "asset" : {"generator" : "Aspose.3D 22.7", "version" : "2.0"}, "buffers" : [{"uri" : "data:application/octet-stream;base64,", "byteLength" : 771128}], "bufferViews" : [{"buffer" : 0, "byteOffset" : 0, "byteLength" : 17136, "target" : 34963}, {"buffer" : 0, "byteOffset" : 17140, "byteLength" : 753984, "byteStride" : 88, "target" : 34962}], "materials" : [{"name" : "lambert1", "pbrMetallicRoughness" : {"baseColorFactor" : [0.5, 0.5, 0.5, 1], "metallicFactor" : 0, "roughnessFactor" : 0.6}, "emissiveFactor" : [0, 0, 0], "alphaMode" : "OPAQUE", "doubleSided" : true}], "meshes" : [{"primitives" : [{"attributes" : {"POSITION" : 1, "NORMAL" : 2, "TEXCOORD_0" : 3, "TEXCOORD_1" : 4, "TEXCOORD_2" : 5, "TEXCOORD_3" : 6, "TEXCOORD_4" : 7, "TEXCOORD_5" : 8, "TEXCOORD_6" : 9, "TEXCOORD_7" : 10}, "indices" : 0, "material" : 0, "mode" : 4}]}], "nodes" : [{"mesh" : 0, "name" : "Doll_0"}, {"children" : [0], "name" : "Esqueleto"}, {"children" : [1], "name" : "Root"}, {"children" : [2], "matrix" : [1, 0, 0, 0, 0, 2.220446049250313E-16, -1, 0, 0, 1, 2.220446049250313E-16, 0, 0, 0, 0, 1], "name" : "Sketchfab_model"}], "scene" : 0, "scenes" : [{"nodes" : [3]}]}